<svg width="475" height="409" viewBox="0 0 475 409" fill="none" xmlns="http://www.w3.org/2000/svg">
  <defs>
    <linearGradient id="logo-gradient" x1="0" y1="0" x2="475" y2="0" gradientUnits="userSpaceOnUse">
      <stop offset="0%" stop-color="#ffd49c"/>
      <stop offset="100%" stop-color="#7a87fb"/>
    </linearGradient>
  </defs>
  <path d="M28.35,0H150a28.34,28.34,0,0,1,27.39,21.06L210.5,145.63c7.48,28.1,47.38,28.07,54.81,0L298.19,21.11A28.35,28.35,0,0,1,325.6,0H447.07a28.35,28.35,0,0,1,28.35,28.35V380.84a28.35,28.35,0,0,1-28.35,28.35H396.81a28.35,28.35,0,0,1-28.35-28.35V315.5c0-33.21-47.28-39.35-55.76-7.24l-21.08,79.82a28.35,28.35,0,0,1-27.41,21.11H211.07a28.35,28.35,0,0,1-27.41-21.13l-20.94-79.4c-8.46-32.12-55.76-26-55.76,7.23v64.95a28.35,28.35,0,0,1-28.35,28.35H28.35A28.35,28.35,0,0,1,0,380.84V28.35A28.35,28.35,0,0,1,28.35,0Z" fill="url(#logo-gradient)"/>
</svg>
